# xmcd
#
# Track frame offsets: 
#        183
#        25258
#        43433
#        63845
#        77500
#        94563
#        111468
#        132438
#        152648
#        170573
#        185340
#        198620
#
# Disc length: 2836 seconds
#
# Revision: 2
# Processed by: cddbd v1.4PL0 Copyright (c) Steve Scherf et al.
# Submitted via: ExactAudioCopy v0.90b4
#
DISCID=a20b120c
DTITLE=Charles Et Les Lulus - Charles Et Les Lulus
DYEAR=1991
DGENRE=Rock
TTITLE0=Ants In My Tea
TTITLE1=It's All Over Now
TTITLE2=Little Red Rooster
TTITLE3=Gimme That Harp, Boy
TTITLE4=Too High To Eat
TTITLE5=Stealin'
TTITLE6=Drink Till I Sink
TTITLE7=Eyesight To The Blind
TTITLE8=Going Back Into The Night
TTITLE9=Rythm Of The Sea
TTITLE10=Walkin' The Dog
TTITLE11=La Paloma
EXTD=
EXTT0=
EXTT1=
EXTT2=
EXTT3=
EXTT4=
EXTT5=
EXTT6=
EXTT7=
EXTT8=
EXTT9=
EXTT10=
EXTT11=
PLAYORDER=
